<svg xmlns="http://www.w3.org/2000/svg" width="227" height="80"><path fill="none" stroke="#000" stroke-dasharray="3.276968 1.638484" stroke-linejoin="round" stroke-miterlimit="10" stroke-width=".819" d="M58.056-58.57V-.617" transform="scale(.97818 -1)"/><path fill="none" stroke="#000" stroke-linejoin="round" stroke-miterlimit="10" stroke-width="1.229" d="M58.056-58.57h57.956" transform="scale(.97818 -1)"/><path fill="none" stroke="#000" stroke-dasharray="3.276968 1.638484" stroke-linejoin="round" stroke-miterlimit="10" stroke-width=".819" d="M116.012-58.57V-.613" transform="scale(.97818 -1)"/><path fill="none" stroke="#000" stroke-linejoin="round" stroke-miterlimit="10" stroke-width="1.229" d="M116.012-.613H58.004M116.12-58.57h57.956" transform="scale(.97818 -1)"/><path fill="none" stroke="#000" stroke-dasharray="3.276968 1.638484" stroke-linejoin="round" stroke-miterlimit="10" stroke-width=".819" d="M174.076-58.57V-.613" transform="scale(.97818 -1)"/><path fill="none" stroke="#000" stroke-linejoin="round" stroke-miterlimit="10" stroke-width="1.229" d="M174.172-.613h-58.448m58.352 0c31.671 0 57.373-25.703 57.373-57.375M.615-58.055c0 31.707 25.733 57.442 57.44 57.442M0-58.57h58.056m116.02 0h57.988" transform="scale(.97818 -1)"/><path fill="none" stroke="#000" stroke-linejoin="round" stroke-miterlimit="10" stroke-width=".512" d="M58.056-58.57v-15.942M116.12-58.57v-15.942m-53.95 4.149h49.733" transform="scale(.97818 -1)"/><path fill-rule="evenodd" d="m61.563 71.898-.5-1.535.5-1.535-4.508 1.535ZM108.707 68.828l.504 1.535-.504 1.535 4.508-1.535Zm0 0"/><path d="M79.434 77.61q0 .568-.188 1.015a2.1 2.1 0 0 1-.531.75 2.35 2.35 0 0 1-.82.465q-.479.159-1.06.16-.322 0-.612-.047a3.39 3.39 0 0 1-.887-.25.7.7 0 0 1-.188-.105.2.2 0 0 1-.054-.07c-.012-.024-.024-.048-.031-.083a1 1 0 0 1-.02-.117q-.005-.069-.004-.168.001-.095.008-.168a.4.4 0 0 1 .027-.12.2.2 0 0 1 .055-.071c.02-.016.039-.02.066-.02q.052-.002.168.067c.075.047.176.093.301.148.129.055.285.106.477.152q.28.07.668.07c.238 0 .46-.027.66-.09a1.35 1.35 0 0 0 .52-.273q.218-.187.343-.468.122-.287.121-.692-.001-.338-.101-.601-.106-.263-.325-.434a1.4 1.4 0 0 0-.55-.258 3.2 3.2 0 0 0-.797-.086 4 4 0 0 0-.567.032 3 3 0 0 1-.441.035q-.149 0-.215-.074-.063-.07-.062-.274v-2.898q0-.181.082-.27a.32.32 0 0 1 .238-.09H78.8q.04-.001.082.028.041.022.066.074.028.048.04.125c.011.05.015.113.015.18 0 .132-.02.238-.055.308q-.054.112-.148.113h-2.602v1.997c.13-.02.254-.032.387-.036q.194-.005.453-.004.597-.001 1.043.145.446.145.746.414.3.263.453.645.153.381.153.843M86.875 79.004q.001.093-.004.164a1 1 0 0 1-.02.113.3.3 0 0 1-.035.082.5.5 0 0 1-.086.106 1.4 1.4 0 0 1-.226.172 2.48 2.48 0 0 1-.8.309q-.241.05-.493.05-.522 0-.926-.176a1.75 1.75 0 0 1-.672-.515 2.3 2.3 0 0 1-.414-.829 4 4 0 0 1-.144-1.136q0-.732.175-1.258a2.45 2.45 0 0 1 .477-.86q.303-.334.719-.5a2.46 2.46 0 0 1 1.738 0q.181.07.328.165a1.1 1.1 0 0 1 .293.261.519.519 0 0 1 .063.21q.005.066.004.165 0 .218-.047.301-.047.087-.118.086-.082 0-.187-.09a3 3 0 0 0-.266-.203 2 2 0 0 0-.39-.2 1.4 1.4 0 0 0-.54-.089c-.429 0-.753.168-.984.504q-.34.5-.34 1.457.001.478.09.84c.059.238.145.441.258.601q.175.24.426.364.247.117.57.117.31 0 .54-.102.233-.098.402-.215.169-.122.285-.214.112-.1.18-.098.036 0 .062.023.03.023.047.075t.027.132q.007.077.008.188M95.234 79.758a.15.15 0 0 1-.02.074.16.16 0 0 1-.07.05.5.5 0 0 1-.136.036 2 2 0 0 1-.215.012 2 2 0 0 1-.219-.012.5.5 0 0 1-.136-.035.16.16 0 0 1-.075-.051q-.021-.032-.02-.074V76.75c0-.21-.019-.398-.054-.574a1.3 1.3 0 0 0-.172-.446.84.84 0 0 0-.3-.285.9.9 0 0 0-.434-.097q-.306-.002-.613.242a4.3 4.3 0 0 0-.68.707v3.46a.12.12 0 0 1-.024.075.16.16 0 0 1-.074.05.5.5 0 0 1-.137.036 2 2 0 0 1-.214.012q-.123 0-.211-.012a.5.5 0 0 1-.14-.035.13.13 0 0 1-.071-.051.15.15 0 0 1-.02-.074V76.75c0-.21-.02-.398-.058-.574a1.4 1.4 0 0 0-.176-.446.84.84 0 0 0-.3-.285.87.87 0 0 0-.427-.097c-.207 0-.41.078-.62.242q-.312.242-.677.707v3.46a.12.12 0 0 1-.023.075.13.13 0 0 1-.07.05.4.4 0 0 1-.133.036 2 2 0 0 1-.223.012q-.128 0-.215-.012a.5.5 0 0 1-.136-.035.14.14 0 0 1-.07-.051.15.15 0 0 1-.016-.074v-4.95a.14.14 0 0 1 .015-.074.15.15 0 0 1 .063-.054.5.5 0 0 1 .125-.035 2.6 2.6 0 0 1 .394 0q.081.011.121.035.044.024.063.054t.02.075v.652c.273-.309.535-.54.792-.684q.386-.217.778-.218c.199 0 .383.027.539.074q.238.07.426.199.18.13.308.309c.086.117.16.254.215.398q.245-.27.461-.457.217-.189.422-.3a1.7 1.7 0 0 1 .39-.169c.13-.035.254-.054.387-.054q.469.001.785.168.317.168.512.449.2.28.281.66.082.376.082.793Zm0 0"/><path fill="none" stroke="#000" stroke-linecap="round" stroke-miterlimit="10" stroke-width=".819" d="M49.21-58.57h8.846v8.843H49.21Zm8.846 49.11H66.9v8.843h-8.845Zm49.11-49.11h8.846v8.843h-8.845ZM165.23-9.465h8.846v8.848h-8.846Zm8.846-49.105h8.85v8.847h-8.85Zm0 0" transform="scale(.97818 -1)"/></svg>